<svg viewBox="0 0 180 180" xmlns="http://www.w3.org/2000/svg">
  <path fill="#00FF00" d="M90 10 C 60 10, 30 30, 30 65 C 30 85, 40 100, 50 110 C 40 120, 40 140, 60 150 L 70 150 C 80 170, 100 170, 110 150 L 120 150 C 140 140, 140 120, 130 110 C 140 100, 150 85, 150 65 C 150 30, 120 10, 90 10 Z M 65 65 C 60 65, 55 70, 55 75 C 55 80, 60 85, 65 85 C 70 85, 75 80, 75 75 C 75 70, 70 65, 65 65 Z M 115 65 C 110 65, 105 70, 105 75 C 105 80, 110 85, 115 85 C 120 85, 125 80, 125 75 C 125 70, 120 65, 115 65 Z M 90 100 C 80 100, 75 110, 75 115 L 105 115 C 105 110, 100 100, 90 100 Z M 70 130 L 70 140 L 110 140 L 110 130 Z M 80 120 L 80 130 L 100 130 L 100 120 Z"/>
</svg>
